<?xml version="1.0" encoding="UTF-8"?>
<svg xmlns="http://www.w3.org/2000/svg" version="1.1" viewBox="0 0 216.4 53">
  <!-- Generator: Adobe Illustrator 28.6.0, SVG Export Plug-In . SVG Version: 1.2.0 Build 709)  -->
  <g>
    <g id="Layer_1">
      <g>
        <path d="M23.8,1.2v1.1c-3,.4-5.1,1.5-6.4,3-.6.7-1,1.6-1.2,2.7-.2,1.1-.4,2.5-.4,4.4v28.2c0,1.9.1,3.3.3,4.4.2,1.1.6,1.9,1.1,2.6,1.1,1.4,3.2,2.1,6.3,2.1h.8c1.7,0,3.3-.3,4.8-.8,1.6-.5,3.2-1.3,4.8-2.4,1.6-1.1,3.3-2.5,5-4.2,1.7-1.7,3.4-3.7,5.2-6h1.1l-4.4,15.4H0v-1.1c2.7-.4,4.6-1.5,5.8-3.1.9-1.2,1.4-3.5,1.4-7.1V12.5c0-2.2-.1-3.9-.4-4.9-.2-1-.7-1.9-1.4-2.6-1.2-1.4-3.1-2.3-5.5-2.7v-1.1h23.8ZM5.2,49.9h10.8l-1.4-1.1c-.8-.6-1.4-1.1-1.6-1.5-.2-.4-.4-.9-.4-1.7s0-.7,0-.8c0-.1,0-.3,0-.4V8.6c0-.1,0-.3,0-.4,0-.1,0-.4,0-.8,0-.7.1-1.3.4-1.7.3-.4.8-.9,1.6-1.4l2.1-1.6H4.6l2.1,1.6c.9.6,1.4,1.1,1.6,1.4.2.3.3.9.3,1.7,0,.4,0,.8,0,1.2v35.9c0,.4,0,.8,0,1.2,0,.8-.1,1.3-.3,1.7-.2.4-.8.8-1.6,1.5l-1.4,1.1ZM38.3,49.9l2-6.9c-2.4,2.9-5.3,5.2-8.6,6.9h6.6Z"/>
        <path d="M46.5,26.5c0-3.6.7-7,2.1-10.3,1.4-3.3,3.3-6.1,5.8-8.6,2.5-2.5,5.3-4.4,8.5-5.7,3.2-1.3,6.6-2,10.2-2s9.2,1.2,13.3,3.6c4.1,2.4,7.3,5.6,9.7,9.7,2.4,4.1,3.6,8.5,3.6,13.3s-.7,6.9-2,10.2c-1.3,3.2-3.3,6.1-5.7,8.5-2.5,2.5-5.3,4.4-8.5,5.8s-6.6,2.1-10.2,2.1-9.3-1.2-13.4-3.6-7.3-5.6-9.7-9.6-3.6-8.5-3.6-13.3ZM61.9,49.3c-2.2-1.6-4-3.5-5.5-5.8-1.4-2.2-2.5-4.8-3.3-7.7-.7-2.9-1.1-6.1-1.1-9.6,0-5.1.8-9.5,2.4-13.1,1.6-3.6,4.1-6.7,7.5-9.3-2.9,1.6-5.4,3.5-7.5,5.8-2.1,2.3-3.7,4.9-4.8,7.7-1.1,2.9-1.6,5.9-1.6,9.1s.5,6.3,1.6,9.1c1.1,2.9,2.7,5.5,4.8,7.8,2.1,2.3,4.6,4.3,7.5,5.9ZM55.8,26.3c0,3.6.4,7,1.2,10.1.8,3.1,2,5.7,3.5,7.9,1.5,2.2,3.3,3.9,5.5,5,2.1,1.2,4.5,1.7,7.1,1.7,4.2,0,7.9-1.7,11.1-5,1.9-2.1,3.4-4.8,4.5-8.2,1-3.4,1.6-7.2,1.6-11.6s-.4-7.2-1.2-10.3c-.8-3.1-1.9-5.7-3.4-7.8s-3.3-3.8-5.4-5c-2.1-1.2-4.5-1.7-7.1-1.7s-5,.6-7.1,1.8c-2.1,1.2-3.9,2.9-5.4,5s-2.7,4.8-3.5,7.9c-.8,3.1-1.2,6.5-1.2,10.1ZM82.2,49.3c9-5.2,13.5-12.8,13.5-22.8s-.5-6.3-1.5-9.2-2.4-5.5-4.3-7.8c-1.8-2.3-4-4.1-6.5-5.5,5.4,4.7,8.1,12.1,8.1,22.1s-.3,5.7-.8,8.4c-.5,2.7-1.3,5-2.2,7-.5,1-1,1.9-1.5,2.7-.5.8-1.2,1.6-2,2.4-.8.8-1.8,1.7-2.9,2.6Z"/>
        <path d="M148.9,1.9l4.3,13.4h-1.1c-2.5-4.8-5.2-8.2-8.1-10.3-2.9-2.1-6.3-3.2-10.2-3.2s-5.6.6-8.2,1.8c-2.6,1.2-4.9,3-6.9,5.3-3.6,4.2-5.4,9.5-5.4,15.8s.9,9.3,2.8,13.3c1.9,3.9,4.5,7,7.8,9.3,3.3,2.2,7,3.4,11,3.4s4.7-.4,6.7-1.2c1.9-.8,3.3-1.9,4.1-3.4.8-1.3,1.1-3.4,1.1-6.4v-1.3c0-2.2-.2-3.8-.5-4.9-.3-1.1-.9-2-1.6-2.8-1.5-1.4-3.7-2.2-6.6-2.5v-1.1h22.8v1.1c-2,.4-3.5,1.5-4.4,3.1-.7,1.2-1,3.6-1,7.1v6.7l2.3,3.4c-.3,0-.7,0-1.2,0-1.9,0-3.7.2-5.5.5-1.8.3-4,.9-6.8,1.8-2.7.9-4.9,1.4-6.8,1.8-1.9.3-3.9.5-6,.5-8,0-14.4-2.2-18.9-6.7-2.5-2.5-4.4-5.4-5.8-8.8-1.4-3.4-2.1-6.8-2.1-10.3s.7-7.1,2.1-10.4c1.4-3.3,3.4-6.2,6-8.6,2.5-2.5,5.5-4.4,8.9-5.8,3.4-1.4,7-2.1,10.7-2.1s4.7.2,7.7.7c.4,0,1,.1,1.6.2.6.1,1.8.3,3.5.6.9.2,1.6.3,2.2.3s.3,0,.5,0c.2,0,.5,0,.8,0s.3,0,.4,0ZM127.8,51.6c-2.8-1-5-2-6.7-3-1.7-1.1-3.4-2.4-4.9-4.1-2.1-2.4-3.7-5.1-4.8-8.3-1.1-3.1-1.7-6.4-1.7-9.8s.4-5.8,1.2-8.6,2-5.3,3.6-7.4c1.7-2.4,4.3-4.8,7.8-7.3-3.5,1.7-6.5,3.8-9,6.2-2.5,2.4-4.3,5.1-5.6,8.2-1.2,3-1.9,6.3-1.9,9.8s.9,8.2,2.8,11.8c1.8,3.6,4.4,6.5,7.8,8.7,3.4,2.2,7.2,3.6,11.4,4ZM143.9,28.4l2.2,1.6c.8.6,1.4,1.1,1.6,1.5.2.4.4.9.4,1.7s0,.5,0,.7c0,.2,0,.4,0,.6v6.3c0,2-.2,3.5-.6,4.6-.4,1.1-1.3,2.2-2.5,3.5,2.3-1,4.7-1.6,7.1-1.9v-12.5c0-.4,0-.8,0-1.2,0-.7.1-1.3.4-1.7.3-.4.8-.9,1.6-1.4l2.2-1.6h-12.3Z"/>
        <path d="M163.4,26.5c0-3.6.7-7,2.1-10.3,1.4-3.3,3.3-6.1,5.8-8.6,2.5-2.5,5.3-4.4,8.5-5.7,3.2-1.3,6.6-2,10.2-2s9.2,1.2,13.3,3.6c4.1,2.4,7.3,5.6,9.7,9.7,2.4,4.1,3.6,8.5,3.6,13.3s-.7,6.9-2,10.2c-1.3,3.2-3.3,6.1-5.7,8.5-2.5,2.5-5.3,4.4-8.5,5.8s-6.6,2.1-10.2,2.1-9.3-1.2-13.4-3.6-7.3-5.6-9.7-9.6-3.6-8.5-3.6-13.3ZM178.7,49.3c-2.2-1.6-4-3.5-5.5-5.8-1.4-2.2-2.5-4.8-3.3-7.7-.7-2.9-1.1-6.1-1.1-9.6,0-5.1.8-9.5,2.4-13.1,1.6-3.6,4.1-6.7,7.5-9.3-2.9,1.6-5.4,3.5-7.5,5.8-2.1,2.3-3.7,4.9-4.8,7.7-1.1,2.9-1.6,5.9-1.6,9.1s.5,6.3,1.6,9.1c1.1,2.9,2.7,5.5,4.8,7.8,2.1,2.3,4.6,4.3,7.5,5.9ZM172.7,26.3c0,3.6.4,7,1.2,10.1.8,3.1,2,5.7,3.5,7.9,1.5,2.2,3.3,3.9,5.5,5,2.1,1.2,4.5,1.7,7.1,1.7,4.2,0,7.9-1.7,11.1-5,1.9-2.1,3.4-4.8,4.5-8.2s1.6-7.2,1.6-11.6-.4-7.2-1.2-10.3c-.8-3.1-1.9-5.7-3.4-7.8-1.5-2.1-3.3-3.8-5.4-5-2.1-1.2-4.5-1.7-7.1-1.7s-5,.6-7.1,1.8c-2.1,1.2-3.9,2.9-5.4,5s-2.7,4.8-3.5,7.9c-.8,3.1-1.2,6.5-1.2,10.1ZM199,49.3c9-5.2,13.5-12.8,13.5-22.8s-.5-6.3-1.5-9.2c-1-2.9-2.4-5.5-4.3-7.8-1.8-2.3-4-4.1-6.5-5.5,5.4,4.7,8.1,12.1,8.1,22.1s-.3,5.7-.8,8.4c-.5,2.7-1.3,5-2.2,7-.5,1-1,1.9-1.5,2.7-.5.8-1.2,1.6-2,2.4-.8.8-1.8,1.7-2.9,2.6Z"/>
      </g>
    </g>
  </g>
</svg>